<?xml version="1.0" standalone="no"?>
<!DOCTYPE svg PUBLIC "-//W3C//DTD SVG 20010904//EN"
 "http://www.w3.org/TR/2001/REC-SVG-20010904/DTD/svg10.dtd">
<svg version="1.0" xmlns="http://www.w3.org/2000/svg"
 width="1200.000000pt" height="1200.000000pt" viewBox="0 0 1200.000000 1200.000000"
 preserveAspectRatio="xMidYMid meet">
<metadata>
Created by potrace 1.14, written by Peter Selinger 2001-2017
</metadata>
<g transform="translate(0.000000,1200.000000) scale(0.100000,-0.100000)"
fill="#000000" stroke="none">
<path d="M5624 11031 c-819 -145 -1315 -988 -988 -1681 l45 -95 -12 -240 c-9
-182 -9 -284 -1 -423 11 -171 11 -187 -7 -240 -33 -98 -69 -278 -106 -527 -20
-132 -54 -334 -76 -448 -44 -234 -41 -226 -173 -397 -45 -58 -111 -145 -146
-195 -35 -49 -67 -92 -70 -95 -3 -3 -25 -35 -49 -72 -24 -38 -47 -68 -52 -68
-5 0 -9 -6 -9 -14 0 -8 -12 -27 -27 -44 -16 -17 -29 -35 -30 -40 -2 -6 -36
-62 -77 -124 -115 -176 -174 -285 -187 -346 -6 -31 -36 -119 -66 -196 -30 -78
-70 -195 -89 -261 l-35 -119 31 -62 c16 -33 52 -84 79 -111 l49 -50 -10 -49
c-18 -92 4 -253 62 -449 71 -244 127 -360 510 -1060 48 -88 131 -243 185 -345
180 -341 225 -402 330 -451 33 -16 66 -29 73 -29 7 0 17 -12 23 -27 6 -16 17
-36 26 -45 13 -15 13 -27 0 -120 -9 -57 -36 -199 -61 -316 -89 -412 -93 -543
-23 -640 54 -72 180 -164 284 -205 l42 -16 32 57 c18 31 80 138 137 237 116
200 265 491 397 780 48 105 102 220 121 256 19 36 34 70 34 75 0 6 5 15 12 22
9 9 16 -9 30 -81 24 -115 52 -179 112 -245 41 -47 46 -58 46 -100 0 -63 -50
-257 -159 -619 -136 -451 -146 -499 -115 -571 46 -110 168 -161 316 -133 162
32 341 220 488 511 84 166 180 476 180 580 0 27 5 50 10 52 6 2 5 28 -5 73
-22 104 -20 114 25 152 111 95 154 303 211 1013 12 151 25 277 28 280 3 3 7
34 7 70 2 71 50 365 87 529 l24 104 150 141 c184 172 276 272 392 426 236 313
325 553 392 1060 l13 95 74 98 c132 176 162 244 198 447 32 183 6 532 -71 963
-46 261 -136 597 -182 677 -23 41 -26 63 -39 245 -7 110 -18 396 -24 635 -15
599 -35 750 -109 820 -76 73 -204 93 -587 94 l-291 1 -22 75 c-104 351 -383
628 -752 745 -178 56 -410 70 -605 36z m411 -16 c507 -77 883 -435 950 -907
16 -111 19 -197 9 -247 l-7 -32 -17 29 c-10 16 -39 39 -64 52 -58 27 -102 21
-150 -20 -19 -17 -36 -30 -40 -30 -3 0 -6 15 -6 34 0 111 -61 281 -150 414
-150 228 -387 377 -674 427 -382 65 -802 -85 -1055 -378 -150 -175 -224 -341
-256 -580 l-14 -102 4 160 c3 134 7 175 29 254 89 318 295 583 589 755 262
153 565 214 852 171z m-70 -320 c104 -26 252 -91 331 -146 138 -94 266 -256
329 -411 164 -408 -3 -906 -390 -1163 -123 -81 -221 -128 -245 -115 -26 14
-35 13 -21 -4 26 -31 -221 -86 -389 -86 -390 0 -721 204 -906 557 -35 68 -36
74 -21 91 9 10 17 29 18 43 0 15 9 -1 23 -41 44 -126 95 -209 190 -309 150
-157 349 -248 596 -273 103 -10 127 -9 235 10 399 69 693 306 814 657 29 86
35 116 39 221 5 142 -7 226 -49 336 -56 144 -178 295 -312 387 -75 51 -206
109 -303 133 -74 19 -115 22 -244 22 -134 -1 -168 -4 -252 -27 -182 -48 -328
-130 -462 -257 -138 -132 -227 -283 -267 -455 -17 -76 -20 -117 -18 -219 3
-81 1 -119 -5 -108 -6 9 -20 25 -33 35 -13 10 -23 28 -23 40 0 21 2 20 25 -7
l25 -29 0 66 c0 65 -12 88 -25 47 -3 -11 -11 -20 -17 -20 -19 0 -1 177 27 274
50 174 121 299 240 425 170 181 407 306 653 346 126 21 310 13 437 -20z m36
-337 c101 -48 189 -116 256 -202 109 -139 179 -332 153 -425 -17 -65 -67 -111
-118 -111 -79 0 -124 64 -149 209 -30 180 -135 335 -320 475 -65 49 -68 52
-56 82 5 14 17 16 83 11 59 -4 94 -13 151 -39z m1673 -222 c124 -21 194 -57
223 -116 46 -93 63 -321 83 -1120 5 -217 8 -395 6 -397 -1 -1 -23 26 -49 61
-98 133 -246 250 -551 436 -114 69 -206 128 -206 132 0 5 -7 8 -15 8 -8 0 -26
5 -40 12 l-26 12 38 38 c20 21 34 40 32 43 -3 2 -22 -13 -43 -34 l-38 -39 -71
33 c-40 18 -99 42 -132 54 -33 11 -59 24 -58 28 1 4 19 39 41 77 23 37 51 94
63 125 13 31 33 71 46 89 23 36 27 56 41 227 9 115 8 217 -2 297 -7 47 -7 47
26 52 68 9 544 -4 632 -18z m-854 -280 c0 -36 -4 -46 -21 -51 -26 -9 -62 21
-50 42 6 12 59 53 69 53 1 0 2 -20 2 -44z m88 24 c35 -21 38 -31 20 -59 -10
-17 -13 -17 -49 -2 -34 14 -39 20 -39 49 0 38 19 42 68 12z m-154 -87 c19 -15
21 -21 11 -50 -7 -25 -16 -33 -32 -33 -18 0 -23 6 -23 28 0 30 10 72 17 72 2
0 14 -8 27 -17z m220 1 c10 -27 7 -64 -7 -64 -18 0 -38 55 -24 69 15 15 24 14
31 -5z m-81 -11 c38 -43 28 -125 -20 -163 -33 -26 -39 -25 -68 5 -19 18 -25
35 -25 69 0 79 71 135 113 89z m72 -115 c-9 -40 -9 -40 -27 -33 -13 5 -14 12
-5 36 16 41 41 39 32 -3z m-205 -1 c0 -12 7 -32 15 -43 12 -18 12 -24 1 -39
-17 -23 -34 -13 -52 31 -22 52 -18 74 11 74 19 0 25 -5 25 -23z m173 -53 c18
-7 12 -37 -13 -59 -23 -20 -40 -12 -40 19 0 35 22 52 53 40z m-214 -39 c31
-54 76 -77 138 -72 l53 4 -45 -85 c-151 -283 -411 -508 -713 -616 -73 -26 -80
-26 -114 3 -16 14 -13 17 50 46 277 129 523 414 589 682 10 40 19 73 20 73 0
0 10 -16 22 -35z m127 5 c9 0 14 -11 14 -30 0 -33 -13 -37 -54 -19 -21 10 -23
14 -13 36 6 14 16 22 25 18 7 -3 20 -5 28 -5z m-532 -52 c37 -16 70 -89 63
-140 -16 -116 -170 -145 -214 -41 -27 65 -2 135 60 173 37 23 56 25 91 8z
m-1674 -49 c0 -15 -4 -31 -10 -34 -6 -3 -10 4 -10 17 0 13 -3 34 -7 48 -6 22
-5 24 10 11 9 -7 17 -26 17 -42z m2318 -280 c56 -23 102 -44 102 -48 0 -4 -18
-25 -40 -46 -22 -21 -40 -44 -40 -49 0 -6 22 12 49 38 48 47 51 49 80 36 17
-7 31 -16 31 -21 0 -5 -15 -64 -34 -132 -72 -259 -95 -403 -103 -642 -5 -171
-4 -193 31 -425 20 -135 43 -272 52 -305 22 -83 24 -104 37 -518 14 -438 20
-414 -89 -403 -92 10 -136 22 -168 47 -25 20 -37 69 -16 69 25 0 43 66 44 160
0 125 -21 735 -33 925 -16 246 -35 297 -120 311 -32 5 -45 14 -66 46 -18 28
-44 48 -83 66 l-57 27 -280 0 c-286 0 -406 -11 -559 -51 -121 -31 -201 -86
-213 -146 -6 -29 -8 -30 -44 -24 -48 8 -53 -1 -68 -119 -36 -290 -50 -716 -31
-935 15 -174 27 -219 66 -258 19 -19 34 -41 34 -48 0 -27 -29 -73 -63 -98 -29
-23 -197 -89 -205 -82 -2 2 -8 89 -14 192 -9 165 -5 532 6 589 2 11 7 55 11
98 4 42 11 77 15 77 4 0 11 44 15 98 12 174 41 391 101 752 32 195 58 356 59
357 1 2 47 -6 104 -17 127 -25 320 -27 452 -4 182 31 398 119 555 225 87 58
246 207 290 270 34 49 40 49 192 -12z m-2190 -71 c62 -79 142 -153 234 -218
l68 -48 -53 -39 c-52 -40 -188 -174 -227 -226 -12 -15 -36 -52 -55 -82 l-33
-56 -8 108 c-15 191 -3 658 15 636 4 -4 31 -38 59 -75z m2494 -85 c43 -27 78
-52 78 -57 0 -5 -23 -78 -50 -163 -128 -395 -178 -684 -181 -1048 l-1 -150
-14 60 c-8 33 -11 79 -8 102 3 28 0 50 -10 65 -37 59 -61 486 -36 673 27 207
111 565 133 565 6 0 46 -21 89 -47z m248 -155 c229 -146 357 -266 477 -446 45
-69 112 -218 101 -227 -2 -1 -76 -7 -166 -14 -190 -13 -291 -31 -356 -61 -42
-20 -47 -27 -62 -79 -14 -46 -16 -80 -10 -191 15 -286 23 -386 35 -408 27 -50
131 -77 301 -77 l125 0 -25 -24 c-29 -29 -14 -39 28 -17 16 8 37 13 48 11 10
-2 22 -4 26 -4 4 -1 5 -8 2 -16 -8 -19 16 -20 41 -2 17 13 17 15 -3 35 -12 12
-17 22 -11 22 7 0 22 -11 34 -24 34 -37 86 -43 129 -17 l35 22 5 -33 c3 -18
10 -63 16 -99 5 -36 10 -78 10 -93 l0 -27 -37 30 c-92 73 -217 99 -394 81
-109 -11 -189 -33 -189 -52 0 -6 9 -7 23 -3 88 28 160 36 282 33 114 -3 137
-7 186 -30 31 -14 75 -42 98 -63 39 -35 41 -40 41 -93 l0 -55 -22 20 c-60 54
-171 87 -298 87 -149 0 -235 -46 -287 -151 -24 -50 -27 -69 -27 -148 -1 -110
19 -160 94 -239 83 -88 249 -148 361 -130 l42 7 -19 -32 c-29 -50 -40 -55
-134 -59 -272 -13 -479 177 -497 458 -8 126 27 231 114 336 25 31 31 44 20 44
-16 0 -57 -48 -95 -111 -99 -164 -79 -408 48 -575 83 -110 263 -191 404 -182
l74 5 -90 -116 c-49 -64 -119 -155 -155 -203 -36 -49 -69 -88 -72 -88 -3 0
-55 41 -116 91 -185 153 -334 261 -470 341 -71 42 -142 82 -157 88 l-27 13 31
56 c65 119 102 181 110 181 4 0 8 7 8 14 0 8 24 43 53 77 70 83 81 98 73 106
-4 4 -29 -17 -55 -47 l-48 -54 -6 200 c-14 406 -18 729 -10 719 22 -27 73 -68
73 -59 0 5 -19 29 -41 53 l-42 44 6 211 c4 172 10 233 30 331 14 66 28 137 32
157 18 108 153 558 167 558 5 0 67 -37 138 -82z m-2342 -72 c26 -13 75 -34
110 -46 l64 -23 -7 -36 c-4 -20 -29 -166 -55 -326 -27 -159 -49 -275 -49 -257
-1 39 -16 42 -26 5 -4 -19 -2 -31 9 -39 9 -6 15 -22 15 -35 -1 -17 -3 -19 -6
-6 -5 20 -23 23 -23 5 0 -7 -3 -24 -7 -37 -5 -20 -3 -23 10 -18 13 5 17 1 17
-18 0 -18 -5 -25 -20 -25 -16 0 -20 -7 -20 -35 0 -19 5 -35 10 -35 6 0 10 14
10 32 0 17 3 29 6 26 3 -4 2 -38 -2 -77 -6 -60 -9 -71 -25 -71 -15 0 -19 -7
-19 -35 0 -39 16 -48 23 -12 3 12 3 0 1 -28 -2 -27 -4 -70 -4 -94 0 -24 -2
-42 -5 -39 -7 7 -41 269 -60 473 -24 250 -23 775 1 775 3 0 26 -11 52 -24z
m-91 -83 c-19 -213 6 -665 58 -1041 22 -163 23 -180 10 -290 -7 -64 -17 -218
-21 -342 -7 -252 -10 -261 -88 -394 -44 -74 -100 -151 -164 -226 l-31 -35
-198 201 c-109 110 -232 228 -274 261 l-77 60 35 44 c20 24 51 65 70 91 31 43
43 51 106 70 58 18 96 23 189 23 88 0 118 3 118 13 0 19 -209 15 -291 -6 -66
-18 -67 -18 -58 3 4 11 20 86 34 166 l27 147 87 0 c49 0 98 5 110 12 51 27 71
116 91 412 15 217 9 228 -121 228 -40 0 -59 4 -59 13 0 31 54 208 80 264 37
80 105 184 160 246 42 48 195 177 209 177 4 0 3 -44 -2 -97z m945 67 c12 -11
18 -23 15 -27 -20 -20 -148 -35 -312 -38 -155 -3 -166 -2 -80 5 110 9 261 40
315 63 19 9 36 16 38 16 2 1 12 -8 24 -19z m483 -491 c33 -6 72 -17 87 -25 29
-15 78 -63 78 -76 0 -5 -19 -8 -42 -8 -24 0 -153 -11 -288 -25 -234 -23 -533
-47 -742 -60 -111 -6 -118 0 -72 55 80 94 336 145 745 149 96 0 202 -4 234
-10z m1595 -134 c10 -13 9 -15 -9 -15 -21 0 -31 -19 -11 -21 6 -1 15 -2 22 -3
11 -1 55 -147 71 -236 l7 -35 -43 3 -43 4 0 -59 c1 -32 -3 -66 -8 -75 -7 -15
-4 -18 17 -18 13 0 38 3 54 6 29 6 29 6 26 67 -2 34 -1 57 2 52 7 -14 75 -419
71 -422 -2 -2 -135 -4 -297 -6 -311 -2 -348 2 -396 45 -24 23 -26 32 -44 328
-12 199 -5 283 29 313 38 34 243 73 427 80 39 2 80 4 91 5 12 1 27 -5 34 -13z
m-1336 -9 c66 -27 68 -54 97 -896 2 -63 4 -184 4 -268 l0 -154 -30 -23 c-38
-31 -46 -32 -550 -51 -577 -23 -801 -12 -861 40 -71 61 -91 458 -49 986 9 102
18 201 21 220 12 73 8 70 92 70 150 0 512 28 972 75 173 17 264 18 304 1z
m-1977 -82 c10 -13 12 -33 9 -64 -3 -25 -11 -119 -17 -208 -12 -193 -34 -282
-74 -300 -14 -7 -59 -12 -100 -12 -60 0 -75 3 -75 15 0 8 7 15 15 15 8 0 15 5
15 10 0 6 -4 10 -10 10 -5 0 -10 9 -10 20 0 17 6 19 49 17 66 -3 91 19 91 81
0 59 -21 82 -72 82 -35 0 -38 2 -38 28 0 42 11 50 65 54 l50 3 3 66 c3 79 -13
105 -60 95 -26 -5 -28 -4 -22 22 10 48 13 52 34 52 11 0 20 7 20 15 0 18 -12
19 -28 3 -8 -8 -12 -9 -12 -1 0 18 21 23 89 20 49 -2 67 -7 78 -23z m-126
-121 c6 -6 9 -32 7 -59 l-3 -49 -43 -3 c-43 -3 -44 -3 -39 25 3 15 8 44 11 63
5 30 10 35 31 35 14 -1 30 -6 36 -12z m3499 -163 c0 -43 -3 -50 -20 -50 -17 0
-20 7 -20 50 0 43 3 50 20 50 17 0 20 -7 20 -50z m-3519 -80 c14 -8 19 -21 19
-49 0 -48 -18 -63 -67 -59 l-38 3 2 44 c1 24 4 50 7 58 6 16 49 17 77 3z
m3575 -335 c-22 -17 -72 -20 -81 -6 -5 9 24 15 80 19 20 1 20 1 1 -13z m-43
-364 c31 -13 73 -38 93 -56 l35 -33 -6 -79 c-12 -152 -54 -321 -97 -392 l-21
-33 -107 4 c-92 4 -115 8 -172 35 -160 75 -233 202 -208 361 18 112 70 178
163 208 65 21 247 13 320 -15z m-3811 -294 c111 -98 291 -279 386 -388 l31
-36 -33 -32 -33 -32 -24 28 c-46 53 -294 289 -404 382 -60 52 -111 98 -113
103 -4 8 49 87 58 88 3 0 62 -51 132 -113z m768 -2 c0 -34 -3 -43 -14 -39 -13
5 -46 -30 -46 -48 0 -14 23 -9 42 9 17 15 18 15 18 -14 0 -45 -28 -131 -62
-193 -31 -55 -108 -160 -118 -160 -3 0 -25 23 -49 51 l-44 51 22 21 c12 12 21
17 19 10 -3 -11 1 -13 22 -13 17 0 34 42 20 50 -8 5 6 32 47 87 33 44 77 114
99 156 21 43 40 77 42 77 1 0 2 -20 2 -45z m1586 33 c-3 -7 -7 -25 -10 -40 -5
-21 -15 -30 -44 -38 -20 -6 -213 -16 -434 -22 -528 -16 -618 -6 -618 62 0 15
22 17 218 18 225 1 834 21 841 28 11 10 50 3 47 -8z m106 -15 c20 -43 96 -76
189 -81 44 -3 79 -7 79 -10 0 -4 -85 -156 -94 -169 -1 -1 -224 -9 -496 -18
-272 -8 -583 -20 -690 -25 -107 -5 -292 -10 -411 -10 l-216 0 -7 31 c-15 77
-12 82 67 106 129 40 217 110 217 174 0 19 4 21 38 15 20 -3 49 -6 65 -6 25 0
27 -3 27 -41 0 -38 2 -41 47 -61 64 -28 255 -34 642 -19 422 17 443 22 456
102 6 36 9 39 40 39 27 0 37 -6 47 -27z m-2399 -386 l218 -211 -47 -47 -47
-48 -143 138 c-149 144 -295 278 -354 322 l-34 26 18 29 c10 16 30 44 43 62
l25 33 51 -47 c29 -26 150 -142 270 -257z m757 -96 c5 -30 9 -56 7 -58 -2 -1
-48 -7 -103 -13 -54 -6 -121 -13 -149 -17 l-49 -6 70 79 c39 43 84 99 101 124
31 46 82 151 84 173 1 7 7 -42 15 -108 8 -65 18 -144 24 -174z m1788 180 c-7
-11 -23 -25 -35 -32 -22 -12 -41 -54 -30 -65 8 -8 -83 -156 -105 -172 -10 -7
-18 -22 -18 -34 0 -11 -25 -62 -55 -113 -30 -52 -55 -96 -55 -98 0 -2 -43 -82
-96 -178 -165 -298 -204 -383 -204 -448 0 -110 -72 -195 -193 -226 -58 -15
-79 -26 -114 -62 -39 -38 -47 -42 -73 -36 l-28 8 53 155 c137 404 237 597 389
758 85 90 176 159 279 213 70 37 98 61 85 75 -3 2 -38 -15 -79 -38 l-73 -43
-256 0 c-195 0 -280 4 -360 17 -58 10 -154 25 -215 33 -60 9 -141 23 -180 32
-49 12 -117 17 -228 17 -131 1 -158 4 -162 16 -9 32 -25 135 -25 163 l0 29
133 -7 c72 -3 236 -2 362 4 127 6 390 16 585 21 299 10 434 15 683 29 24 1 26
-1 15 -18z m-2798 -212 c69 -70 158 -163 198 -207 l72 -80 -52 -31 c-29 -17
-92 -58 -139 -91 l-86 -60 -150 79 c-219 115 -303 173 -303 210 0 17 107 198
190 322 l45 67 49 -42 c28 -22 107 -98 176 -167z m2915 -17 c177 -114 582
-427 577 -445 -2 -7 -15 -27 -28 -45 l-25 -32 -32 26 c-179 146 -435 315 -629
414 -54 28 -98 55 -96 58 2 4 18 33 36 64 l34 58 31 -17 c18 -9 77 -45 132
-81z m-2292 51 c-24 -16 -31 -43 -11 -43 6 0 20 8 31 17 18 17 20 17 38 -6 10
-13 19 -26 19 -30 0 -9 -59 -66 -62 -60 -2 2 -18 21 -37 42 l-35 37 29 30 c16
16 34 30 39 29 6 0 1 -7 -11 -16z m501 -115 c3 -18 10 -69 16 -113 38 -278
153 -618 289 -855 l48 -85 -461 -6 c-367 -4 -478 -9 -544 -22 -45 -9 -87 -19
-91 -22 -5 -3 -36 48 -70 113 -50 98 -62 134 -75 210 -8 50 -25 116 -39 146
-28 60 -91 136 -114 136 -10 0 -13 6 -9 16 3 9 6 19 6 24 0 4 12 11 27 15 82
20 256 142 448 315 l130 116 100 13 c110 13 252 28 302 30 29 1 33 -2 37 -31z
m298 9 c57 -24 58 -29 68 -248 5 -112 16 -253 25 -314 28 -197 128 -565 181
-667 14 -28 14 -28 -20 -28 -26 0 -39 7 -58 33 -37 49 -43 66 -10 28 39 -46
51 -24 16 29 -26 39 -49 51 -56 30 -2 -6 -12 4 -22 22 -19 33 -19 33 1 15 18
-15 33 -14 33 3 0 3 -10 17 -21 29 -17 18 -23 20 -30 9 -7 -10 -13 -8 -29 12
-33 43 -122 220 -110 220 16 0 8 52 -8 58 -9 3 -11 -4 -6 -25 11 -46 -2 -24
-41 71 -27 66 -33 91 -24 96 7 5 9 18 5 34 -7 29 -26 35 -27 9 0 -10 -12 14
-25 52 -19 54 -22 74 -14 88 12 20 5 57 -11 57 -5 0 -9 -6 -10 -12 0 -7 -5 3
-11 22 -7 24 -6 36 1 38 6 2 11 17 11 34 0 25 -3 29 -19 25 -15 -4 -20 2 -25
26 -3 17 -4 32 -1 35 3 3 5 0 5 -6 0 -7 5 -12 11 -12 6 0 9 10 7 23 -2 12 -10
22 -18 22 -17 0 -27 31 -29 88 -1 27 3 37 14 37 10 0 15 10 15 29 0 34 -18 51
-31 30 -6 -10 -9 -8 -9 10 l0 24 119 -6 c65 -3 134 -12 153 -20z m308 -46
c233 -30 453 -44 570 -38 94 6 103 5 85 -8 -62 -47 -172 -146 -209 -190 -118
-138 -224 -348 -332 -655 -20 -58 -39 -113 -43 -122 -4 -13 -10 -15 -21 -8
-13 8 -12 10 3 10 9 0 17 5 17 11 0 7 -24 10 -69 8 -39 -2 -72 -1 -75 2 -3 3
-21 62 -40 132 -62 225 -98 495 -108 805 l-3 84 35 -6 c20 -3 105 -14 190 -25z
m2075 -147 c-70 -485 -242 -819 -618 -1201 l-139 -142 -26 24 c-14 13 -64 36
-111 52 -47 15 -88 32 -90 36 -13 31 -70 79 -114 97 l-53 22 27 28 c16 15 44
31 62 34 40 7 136 67 197 122 23 21 86 91 139 154 94 114 145 178 351 445 55
72 113 137 128 146 15 8 28 25 30 38 2 12 41 69 88 127 46 58 98 126 116 150
17 24 33 43 35 41 1 -2 -8 -80 -22 -173z m-3255 96 c0 -4 -22 -25 -49 -48
l-48 -41 -32 33 c-30 30 -31 34 -13 38 16 4 18 1 14 -15 -6 -24 16 -20 32 6 8
13 8 20 -3 26 -12 8 -10 14 10 39 l24 30 33 -31 c17 -17 32 -34 32 -37z m2133
-16 c67 -34 227 -136 292 -185 56 -42 261 -169 273 -169 11 0 117 -79 116 -86
-1 -3 -15 -26 -33 -50 l-31 -44 -107 81 c-127 96 -317 224 -495 332 l-127 78
21 34 c11 19 24 35 29 35 5 0 33 -12 62 -26z m-3095 -137 l-13 -37 -38 26
c-34 23 -38 29 -32 57 14 69 13 68 56 29 39 -37 39 -38 27 -75z m72 6 c14 -9
26 -17 28 -18 4 -3 -28 -75 -33 -75 -14 0 -55 34 -55 45 0 21 19 65 28 65 4 0
19 -8 32 -17z m658 -16 l22 -23 -78 -51 c-80 -53 -141 -85 -180 -98 -22 -6
-23 -5 -12 14 6 12 9 25 6 30 -3 5 12 21 34 35 34 23 39 24 28 7 -7 -11 -9
-23 -5 -27 10 -10 48 27 46 45 -3 29 1 36 11 21 7 -12 13 -13 27 -4 10 7 17
18 16 26 -2 11 40 47 58 48 3 0 15 -10 27 -23z m-784 -122 c-38 -82 -43 -134
-16 -157 38 -34 145 -79 218 -92 30 -5 33 -3 57 52 14 31 29 69 32 83 l7 27
63 -36 c71 -39 70 -38 80 -162 l7 -85 -67 -73 c-37 -39 -71 -70 -75 -67 -4 3
-6 48 -3 100 7 117 -12 131 -23 18 -9 -99 -8 -153 6 -167 14 -14 13 -29 -2
-20 -6 4 -2 -8 10 -28 12 -19 22 -38 22 -41 0 -3 -14 -15 -31 -27 -29 -22 -31
-22 -45 -4 -8 11 -28 46 -45 79 -33 69 -38 144 -15 233 10 41 10 52 1 52 -18
0 -35 -78 -35 -162 0 -63 5 -84 35 -147 19 -40 33 -77 29 -82 -10 -16 -65 -10
-104 12 -32 18 -44 35 -71 98 l-32 76 21 105 c12 58 25 115 28 128 4 13 2 22
-4 22 -14 0 -36 -75 -53 -175 -12 -72 -12 -81 8 -136 12 -32 19 -59 15 -59 -4
0 -31 22 -61 48 -46 41 -55 55 -61 92 -6 47 9 136 35 202 19 49 0 62 -20 14
-25 -59 -47 -168 -41 -201 l6 -30 -24 29 c-14 16 -32 47 -42 68 -17 37 -17 43
0 116 15 60 90 276 141 404 6 15 11 15 45 -8 l38 -25 -34 -74z m229 80 c42
-21 42 -20 22 -69 l-16 -37 -37 22 c-52 31 -55 34 -44 55 6 11 13 27 16 37 3
10 9 17 14 15 4 -2 24 -12 45 -23z m1444 -17 c-3 -8 -6 -5 -6 6 -1 11 2 17 5
13 3 -3 4 -12 1 -19z m1331 -3 c19 -11 66 -39 105 -61 60 -35 436 -302 530
-377 l28 -22 -89 -110 c-166 -206 -274 -300 -372 -326 l-46 -12 -231 156
c-127 86 -234 164 -237 173 -19 51 16 144 144 379 118 217 123 226 130 222 3
-1 20 -11 38 -22z m-2792 -97 l72 -41 -25 -61 c-13 -33 -27 -67 -30 -75 -9
-21 -74 -8 -159 33 -41 19 -77 43 -81 52 -3 9 2 41 11 70 l17 55 106 -56 c110
-57 123 -62 123 -45 0 5 -49 34 -109 64 -106 52 -109 55 -94 75 l14 21 42 -25
c23 -14 74 -44 113 -67z m122 55 c15 -9 28 -18 30 -19 2 -1 -5 -18 -14 -37
l-17 -36 -37 19 -38 19 17 35 c19 41 22 42 59 19z m118 -108 c-11 -16 -22 -31
-22 -33 -1 -2 -18 5 -37 14 l-36 17 20 39 20 38 38 -22 39 -22 -22 -31z m64 6
c0 -16 -48 -67 -55 -59 -4 4 3 21 15 37 21 30 40 40 40 22z m62 -103 c21 -23
52 -70 69 -104 26 -51 31 -74 32 -140 1 -97 -22 -154 -107 -259 -56 -69 -96
-153 -96 -200 0 -13 -6 -30 -12 -37 -7 -7 -13 -28 -14 -46 -3 -74 -107 -133
-209 -118 -55 9 -260 108 -273 133 -5 10 -13 35 -16 57 l-7 38 63 -34 c96 -53
191 -88 241 -88 61 0 94 34 157 161 28 54 79 134 115 178 80 100 101 159 86
249 -5 33 -17 74 -26 92 -21 41 -84 110 -110 120 -20 9 -20 9 1 9 12 1 27 8
34 16 19 23 30 19 72 -27z m-17 -145 c25 -51 31 -149 13 -193 -8 -19 -42 -70
-76 -112 -34 -42 -84 -121 -111 -176 -55 -109 -95 -152 -143 -152 -38 0 -144
42 -235 93 l-73 41 -2 60 c-1 70 0 102 7 134 5 21 8 20 81 -29 103 -69 135
-82 192 -73 50 7 87 26 113 58 16 19 17 19 45 -7 27 -25 44 -34 44 -22 0 2
-13 18 -30 35 -16 17 -30 32 -30 33 0 1 7 24 15 51 8 27 15 60 15 73 0 12 21
51 46 85 l46 62 -7 81 -6 80 39 -43 c22 -23 48 -59 57 -79z m-213 -235 c-8
-33 -8 -33 -21 -10 -11 20 -10 27 5 44 22 24 28 11 16 -34z m520 -277 c43 -78
12 -57 -48 33 -87 129 -137 232 -129 268 7 28 12 21 77 -108 38 -77 83 -163
100 -193z m1847 270 c19 -15 22 -23 15 -44 l-9 -25 -29 23 c-21 17 -27 28 -21
44 8 26 13 26 44 2z m-1967 -201 c-14 -23 -39 -23 -71 -1 -30 22 -51 27 -51
13 0 -11 72 -77 85 -77 6 -1 39 -17 75 -37 67 -38 209 -98 231 -98 7 0 10 -2
8 -5 -8 -8 -389 14 -449 26 -96 18 -90 12 -74 80 17 74 23 85 104 192 l64 86
44 -82 c31 -59 41 -86 34 -97z m2075 122 c3 -8 -1 -21 -10 -29 -14 -14 -18
-13 -46 6 -35 25 -35 25 -19 51 11 18 13 18 41 2 16 -9 32 -23 34 -30z m-128
3 l30 -26 -50 -77 c-63 -99 -64 -127 -8 -182 58 -56 157 -130 198 -147 31 -13
39 -13 67 0 32 16 86 76 120 135 10 17 23 32 29 32 7 0 11 -14 9 -32 -2 -34
-46 -201 -66 -253 -16 -41 -128 -166 -181 -201 -23 -16 -44 -32 -47 -36 -8
-11 -63 -22 -59 -12 2 5 35 65 72 133 38 68 65 127 60 131 -4 5 -42 -52 -83
-126 -41 -74 -80 -134 -87 -134 -6 0 -23 4 -37 9 l-25 10 29 53 c29 55 90 219
90 244 0 33 -20 10 -34 -40 -25 -85 -87 -227 -102 -233 -8 -3 -36 9 -63 27
l-50 31 30 27 c40 36 117 242 91 242 -5 0 -24 -42 -42 -92 -54 -158 -77 -178
-140 -122 -22 20 -43 47 -46 59 -5 20 18 95 30 95 20 0 33 -14 29 -31 -3 -10
-1 -19 5 -19 10 0 42 62 56 108 12 36 -13 26 -30 -13 -41 -99 -71 26 -43 181
6 32 19 74 30 93 26 44 161 191 176 191 6 0 25 -11 42 -25z m197 -41 c23 -16
24 -18 8 -35 -21 -23 -28 -23 -60 -3 -23 16 -24 18 -8 35 21 23 28 23 60 3z
m-19 -87 c65 -46 132 -91 150 -102 27 -16 30 -22 22 -38 -10 -17 -12 -17 -28
-3 -22 20 -50 21 -57 1 -8 -20 14 -45 39 -45 l21 0 -21 -22 -22 -21 -108 93
c-59 52 -115 100 -125 107 -9 8 -18 10 -22 5 -3 -5 51 -58 120 -118 l126 -108
-24 -18 c-29 -22 -50 -22 -91 -2 -76 39 -207 157 -207 187 0 22 88 167 101
167 4 0 61 -37 126 -83z m-1332 64 c-8 -13 33 -34 51 -27 21 8 8 26 -18 26
-12 0 -19 3 -15 6 3 3 71 3 151 -1 113 -6 146 -11 146 -21 0 -9 11 -14 31 -14
24 0 30 4 25 15 -4 12 2 15 27 14 23 -1 26 -3 10 -6 -13 -2 -23 -11 -23 -20 0
-11 8 -14 30 -11 24 4 33 -1 46 -20 16 -24 15 -26 -57 -98 l-74 -73 -130 -21
c-165 -26 -373 -43 -450 -35 -72 7 -186 30 -275 56 -64 18 -66 20 -107 86
l-42 67 31 13 c24 11 28 16 19 27 -13 16 12 22 143 36 108 11 488 12 481 1z
m698 -47 c-8 -24 -19 -44 -24 -44 -5 0 -7 -11 -3 -24 3 -13 1 -26 -4 -30 -8
-4 -62 115 -62 137 0 4 24 6 54 6 l54 -2 -15 -43z m234 -8 c-17 -25 -40 -48
-50 -51 -29 -10 -46 -58 -57 -157 -6 -51 -15 -120 -20 -153 -16 -100 -14 -114
26 -150 20 -19 43 -31 50 -28 8 3 14 1 14 -4 0 -12 88 -78 152 -113 29 -16 48
-30 41 -30 -23 0 -219 73 -275 102 -90 48 -101 61 -94 122 3 28 8 77 10 108 9
91 44 239 71 295 27 54 52 76 106 91 57 17 60 14 26 -32z m530 0 c1 -1 -6 -12
-16 -25 l-18 -24 -32 22 c-35 25 -39 45 -14 60 13 7 26 4 48 -12 16 -11 31
-21 32 -21z m-2208 -51 c23 -40 21 -42 -19 -18 -23 13 -27 20 -19 35 13 24 14
24 38 -17z m2263 14 c28 -20 28 -22 12 -40 -21 -23 -26 -24 -54 -1 -19 16 -21
22 -11 40 14 27 16 27 53 1z m-1005 -44 c13 -19 19 -36 15 -38 -6 -4 -55 -18
-147 -44 -12 -3 3 18 40 56 33 34 62 61 65 61 3 0 15 -16 27 -35z m250 -5 c-9
-25 -17 -30 -44 -30 -31 0 -32 1 -22 30 9 25 16 30 44 30 33 0 33 0 22 -30z
m824 -1 c16 -8 18 -13 8 -25 -13 -16 -45 -19 -54 -4 -4 6 -1 17 5 25 15 18 16
18 41 4z m-711 -79 c-5 -36 -10 -90 -10 -121 0 -36 -8 -73 -21 -100 -11 -25
-18 -33 -15 -19 2 14 10 72 17 130 12 106 27 185 34 178 2 -2 0 -33 -5 -68z
m-224 13 c-47 -153 -67 -222 -71 -247 -3 -17 -10 -56 -15 -86 -34 -200 -44
-639 -22 -930 6 -80 14 -264 18 -410 l7 -264 -58 52 c-56 51 -197 142 -221
142 -11 0 -24 86 -24 162 0 58 -130 378 -285 703 -37 77 -87 183 -112 235 -25
52 -96 198 -160 323 -63 126 -113 231 -111 233 2 2 35 -2 73 -8 182 -28 679
30 856 101 13 5 48 10 77 10 46 1 53 -1 48 -16z m73 -75 c-10 -51 -19 -105
-19 -120 0 -26 -3 -28 -46 -28 l-46 0 6 31 c16 82 59 198 75 202 49 13 49 14
30 -85z m731 62 c0 -5 -2 -10 -4 -10 -3 0 -8 5 -11 10 -3 6 -1 10 4 10 6 0 11
-4 11 -10z m-2335 -54 c61 -8 184 -18 275 -21 172 -7 213 -15 145 -27 -181
-32 -605 -6 -605 38 0 33 11 42 43 34 18 -5 82 -16 142 -24z m2538 4 c56 -35
71 -67 63 -135 -7 -66 -50 -197 -89 -276 -45 -89 -67 -99 -222 -98 -115 1
-257 14 -190 18 17 1 41 8 55 16 14 8 52 14 87 15 95 0 163 18 194 51 35 37
90 189 96 266 6 70 -9 105 -53 125 -28 13 -33 48 -6 48 10 0 39 -13 65 -30z
m-3108 -72 c80 -39 121 -53 164 -56 75 -5 134 12 174 51 32 32 32 32 82 19 28
-7 95 -18 149 -23 59 -6 110 -18 125 -27 25 -16 26 -16 11 2 -14 18 -13 19 10
13 14 -4 39 -7 55 -7 31 0 31 -2 58 -97 15 -54 51 -151 78 -216 28 -65 49
-120 48 -122 -33 -31 -672 -245 -734 -245 -21 0 -231 434 -278 575 -47 138
-60 185 -53 185 2 0 52 -23 111 -52z m3062 16 c23 -23 25 -31 20 -77 -6 -56
-35 -152 -69 -224 -26 -56 -62 -73 -156 -73 l-68 0 82 87 c80 85 81 87 104
177 39 152 41 156 87 110z m-1945 -179 c43 -85 75 -160 73 -167 -3 -8 -15 -19
-26 -26 -18 -12 -24 -11 -45 9 -18 17 -27 20 -36 11 -9 -9 -8 -16 5 -30 9 -10
17 -21 17 -24 0 -7 -106 -58 -119 -58 -9 0 -88 180 -122 277 -16 48 -27 132
-12 96 9 -24 34 -15 28 10 -10 42 8 50 125 55 l35 2 77 -155z m2138 130 c36
-10 150 -68 150 -77 0 -19 -54 -19 -112 1 -34 12 -70 21 -80 21 -14 0 -18 8
-18 36 0 29 3 34 18 30 9 -2 28 -7 42 -11z m-2400 -4 c0 -6 -4 -13 -10 -16 -5
-3 -10 1 -10 9 0 9 5 16 10 16 6 0 10 -4 10 -9z m1290 -102 c0 -24 -3 -30 -16
-25 -9 3 -31 6 -50 6 -21 0 -34 5 -34 13 0 23 23 37 62 37 36 0 38 -2 38 -31z
m1126 10 c38 -12 71 -23 74 -25 2 -3 -15 -22 -38 -42 -24 -20 -44 -46 -46 -57
-2 -11 -7 -38 -10 -60 l-7 -40 -68 3 -68 4 33 81 c18 45 36 98 39 119 4 21 10
38 15 38 4 0 39 -9 76 -21z m-1126 -85 c0 -55 105 -122 287 -182 156 -53 243
-67 403 -67 129 0 150 2 189 22 42 21 45 21 118 5 l75 -16 -6 -40 c-4 -22 -9
-42 -11 -44 -12 -13 -390 0 -527 17 -84 11 -175 23 -203 26 -143 18 -436 92
-448 113 -3 4 0 49 5 100 l11 92 53 0 c52 0 54 -1 54 -26z m1039 -164 c52 0
58 -4 42 -28 -6 -10 -22 -12 -63 -7 -66 8 -81 16 -72 38 4 13 10 14 24 7 10
-6 41 -10 69 -10z m-1909 -102 c0 -13 -17 -9 -30 7 -6 8 -8 20 -4 26 5 9 11 7
21 -6 7 -11 13 -22 13 -27z m-50 -23 c15 -16 31 -23 46 -21 36 7 37 -20 1 -48
l-32 -26 -41 47 c-38 43 -40 49 -25 60 22 17 24 16 51 -12z m1050 -80 c303
-64 530 -96 718 -102 l183 -6 -7 -56 c-3 -31 -7 -57 -8 -58 -1 -1 -58 -8 -125
-15 -200 -19 -565 17 -869 86 -173 39 -162 30 -162 135 l0 89 73 -23 c40 -13
128 -35 197 -50z m-1117 3 c21 -43 26 -48 27 -28 0 19 2 22 10 10 12 -20 1
-31 -78 -78 -94 -56 -169 -92 -307 -150 -133 -56 -408 -152 -435 -152 -14 0
-67 81 -98 153 -2 4 7 7 21 7 28 0 411 110 486 140 64 25 63 25 49 -5 -6 -13
-14 -22 -18 -20 -5 3 -11 -2 -14 -11 -10 -25 43 -8 66 22 16 19 27 24 58 22
44 -3 56 12 23 27 -13 5 -23 13 -23 16 0 10 45 20 48 10 1 -4 9 -17 17 -27 19
-27 42 -6 26 24 -25 46 -9 33 19 -15 17 -29 35 -53 40 -53 14 0 13 7 -15 62
-27 53 -30 62 -17 55 4 -3 21 6 37 19 17 13 35 24 41 24 7 0 23 -24 37 -52z
m240 -153 c15 -31 27 -61 27 -69 0 -7 -25 -30 -57 -52 -31 -21 -63 -45 -70
-53 -8 -7 -24 -14 -36 -15 -12 -1 -21 -7 -19 -14 1 -7 -2 -12 -6 -12 -8 0 -16
14 -40 63 -2 4 3 4 12 1 12 -4 16 0 16 15 0 12 -6 21 -15 21 -8 0 -15 -6 -15
-12 0 -7 -9 1 -20 17 -24 36 -25 49 -5 41 8 -3 15 0 15 7 0 10 163 115 180
117 3 0 18 -25 33 -55z m-229 -159 c20 -35 36 -67 36 -71 0 -13 -496 -247
-583 -276 -49 -16 -93 -29 -98 -29 -5 0 -27 36 -49 79 l-39 79 52 12 c29 7 97
28 151 48 l100 35 22 -26 c14 -17 29 -25 38 -21 20 8 20 18 1 34 -14 11 -12
16 16 34 43 30 292 163 306 165 6 0 27 -28 47 -63z m926 8 c30 -7 114 -20 185
-29 347 -41 419 -46 640 -43 l223 3 -4 -50 c-11 -114 -16 -135 -32 -144 -9 -5
-64 -12 -122 -16 -159 -10 -738 37 -890 73 -87 20 -87 20 -89 156 -1 71 1 77
17 71 9 -3 42 -13 72 -21z m-587 -86 c3 -7 43 -105 90 -218 84 -202 111 -290
87 -290 -6 0 -44 -23 -85 -50 -41 -28 -75 -46 -75 -41 0 5 -47 112 -104 238
-57 126 -106 236 -108 245 -2 12 23 33 87 72 100 61 101 61 108 44z m-203
-165 c95 -193 203 -454 193 -464 -18 -15 -401 -258 -440 -278 -54 -27 -66 -27
-138 7 -92 44 -136 101 -265 341 -86 160 -88 170 -33 171 50 0 423 151 598
243 28 14 52 26 56 27 3 0 16 -21 29 -47z m757 -84 c144 -55 694 -108 928 -89
65 6 120 9 121 7 4 -4 -22 -309 -36 -427 -32 -262 -81 -423 -148 -483 -20 -18
-21 -18 -39 2 -16 19 -43 29 -43 15 0 -3 10 -14 23 -25 43 -36 10 -41 -228
-35 -213 6 -360 22 -418 45 -73 29 -134 130 -160 266 -20 98 -47 735 -33 735
3 0 17 -5 33 -11z m-362 -338 c7 -40 -3 -69 -33 -103 -14 -17 -17 -14 -49 34
-26 39 -31 53 -21 59 7 4 29 19 48 32 19 14 38 23 42 21 3 -2 9 -22 13 -43z
m-89 -113 c14 -27 14 -28 -38 -63 -29 -19 -56 -35 -60 -35 -3 0 -20 25 -36 55
l-30 56 48 24 c27 14 52 30 55 36 7 11 30 -17 61 -73z m257 -40 c31 -21 57
-41 57 -43 0 -6 -210 -407 -220 -420 -4 -5 -85 -156 -180 -335 -95 -179 -176
-329 -180 -335 -4 -5 -49 -86 -100 -180 -50 -93 -93 -171 -95 -173 -7 -7 -113
70 -151 110 -64 66 -74 94 -74 200 0 111 15 206 74 484 25 115 51 250 57 300
l12 92 54 12 c115 25 461 221 552 310 l56 56 40 -19 c22 -11 66 -37 98 -59z
m-406 -23 l32 -55 -40 -26 c-22 -13 -44 -22 -50 -19 -5 4 -19 25 -30 48 -12
23 -26 45 -31 48 -9 6 66 59 82 59 3 0 20 -25 37 -55z m-108 -137 c-17 -10
-35 -16 -40 -13 -5 4 -20 28 -34 55 l-25 48 33 21 32 20 32 -56 32 -57 -30
-18z m625 60 c6 -18 5 -36 -3 -56 -12 -28 -14 -29 -42 -19 -35 14 -35 18 -7
68 24 44 38 45 52 7z m-709 -47 l24 -48 -35 -17 c-41 -19 -55 -14 -88 34 l-24
35 41 27 c22 15 44 25 49 22 5 -3 19 -27 33 -53z m-114 -48 c13 -21 25 -41 27
-45 5 -11 -62 -28 -101 -26 -27 2 -39 9 -47 28 -7 13 -8 26 -3 27 4 2 26 14
48 28 22 13 43 25 47 25 3 0 17 -17 29 -37z m764 -5 c30 -14 31 -18 5 -69
l-21 -39 -29 15 c-17 9 -30 18 -30 21 0 8 40 84 45 84 2 0 16 -5 30 -12z m-35
-141 c0 -4 -16 -39 -35 -78 l-36 -70 -31 18 c-17 10 -30 23 -29 28 0 6 17 40
36 77 l35 67 30 -17 c17 -9 30 -20 30 -25z m-115 -156 l34 -18 -35 -74 c-20
-41 -37 -76 -40 -78 -2 -2 -19 8 -39 23 l-36 27 38 70 c20 38 39 69 40 69 2 0
19 -8 38 -19z m515 -67 c0 -12 3 -29 6 -38 4 -12 0 -16 -16 -16 -42 0 -60 18
-60 59 l0 39 35 -11 c26 -8 35 -16 35 -33z m98 -26 c3 -37 3 -38 -32 -38 -28
0 -36 4 -36 18 0 9 -3 27 -6 40 -6 22 -4 23 32 20 37 -3 39 -5 42 -40z m92 -9
c0 -38 -2 -41 -22 -35 -13 3 -29 6 -35 6 -8 0 -13 14 -13 35 0 33 2 35 35 35
34 0 35 -1 35 -41z m111 21 c14 0 19 -7 19 -30 0 -30 0 -30 -56 -30 -47 0 -55
3 -50 16 3 9 6 25 6 36 0 18 4 20 31 14 17 -3 40 -6 50 -6z m139 -36 c0 -29
-3 -35 -16 -30 -9 3 -29 6 -45 6 -26 0 -29 4 -29 30 0 29 2 30 45 30 l45 0 0
-36z m82 31 c2 -3 3 -18 0 -35 -3 -24 -9 -30 -28 -30 -21 0 -24 5 -24 35 0 30
3 35 23 35 13 0 26 -2 29 -5z m58 -19 c0 -13 -7 -29 -15 -36 -13 -11 -15 -7
-15 24 0 25 4 36 15 36 9 0 15 -9 15 -24z m-440 -51 c96 -8 223 -17 282 -21
l106 -6 -5 -36 c-20 -146 -114 -456 -192 -635 -83 -189 -216 -403 -298 -480
-30 -28 -113 -57 -164 -57 -95 0 -197 69 -218 148 -18 64 -12 91 130 564 76
256 114 394 143 521 5 22 11 27 24 22 9 -3 96 -13 192 -20z m-719 -41 c6 -8
-3 -37 -27 -88 l-37 -76 -30 23 c-53 41 -54 48 -13 121 l37 66 30 -17 c17 -10
35 -23 40 -29z m1179 7 c0 -24 -3 -28 -20 -24 -25 7 -26 40 -2 46 9 3 18 5 20
6 1 0 2 -12 2 -28z m-4 -109 c-3 -25 -6 -53 -6 -63 0 -16 -4 -17 -30 -8 -34
13 -33 8 -19 82 11 54 12 55 36 44 23 -10 25 -15 19 -55z m-1296 -57 c13 -14
30 -25 37 -25 10 0 6 -14 -12 -49 -13 -27 -29 -52 -34 -56 -11 -6 -94 44 -89
54 2 3 14 27 28 54 13 26 29 47 35 47 6 0 22 -11 35 -25z m1272 -54 c6 -5 -16
-119 -24 -125 -2 -2 -17 1 -34 6 l-32 8 15 53 c8 28 16 58 19 65 4 13 40 9 56
-7z m-1302 -119 c-1 -4 -15 -35 -33 -70 l-32 -62 -48 30 -47 30 37 69 38 69
42 -30 c24 -16 43 -32 43 -36z m1268 -37 c2 -2 -6 -30 -17 -62 -12 -32 -24
-64 -26 -70 -3 -9 -12 -8 -33 4 l-29 17 21 63 c20 63 21 64 51 57 16 -3 32 -8
33 -9z m-1394 -93 l45 -27 -35 -58 -36 -57 -44 31 c-42 29 -44 32 -31 52 8 12
22 37 31 55 9 17 19 32 21 32 3 0 25 -12 49 -28z m1313 -67 l22 -15 -20 -48
c-26 -61 -31 -65 -61 -51 l-26 11 18 42 c9 22 20 49 23 59 8 21 16 21 44 2z
m-1397 -70 c22 -14 40 -28 40 -31 0 -5 -46 -90 -65 -121 0 -1 -21 8 -45 20
l-45 22 35 67 c19 38 36 68 38 68 1 0 20 -11 42 -25z m1337 -78 l22 -12 -29
-52 c-28 -49 -32 -52 -55 -41 -18 8 -22 15 -16 27 5 9 16 33 24 54 17 40 21
42 54 24z m-1415 -81 l37 -19 -20 -38 -19 -38 -37 16 c-21 8 -41 17 -45 20
-10 5 30 86 40 81 4 -2 24 -12 44 -22z m1357 -63 c2 -1 -7 -17 -20 -35 -12
-18 -23 -34 -24 -36 -1 -1 -11 1 -23 5 -20 8 -20 8 5 51 22 37 28 41 42 30 9
-7 18 -13 20 -15z m-78 -121 c-45 -63 -86 -69 -50 -7 15 25 28 35 46 35 l24 0
-20 -28z m-87 -103 c-47 -50 -71 -57 -34 -10 18 23 40 41 49 41 10 0 6 -9 -15
-31z"/>
<path d="M7100 9933 c0 -12 71 -23 149 -23 31 0 115 -7 186 -15 72 -8 175 -17
231 -21 l101 -7 34 31 c19 17 31 34 26 38 -4 4 -17 -2 -30 -14 -12 -11 -33
-23 -47 -27 -14 -3 -118 3 -230 14 -290 28 -420 35 -420 24z"/>
<path d="M7764 9628 c2 -24 7 -45 12 -48 12 -6 17 35 10 66 -10 40 -26 27 -22
-18z"/>
<path d="M7767 9540 c-3 -8 -8 -187 -10 -397 -3 -296 -2 -383 8 -383 9 0 13
88 18 363 6 326 1 461 -16 417z"/>
<path d="M7886 9292 c-3 -5 -9 -59 -12 -120 -6 -95 -4 -115 10 -137 28 -43 44
-32 51 38 3 34 5 98 3 142 -3 73 -5 80 -25 83 -11 2 -24 -1 -27 -6z m33 -99
c0 -97 -11 -166 -22 -140 -9 24 3 217 15 217 4 0 8 -35 7 -77z"/>
<path d="M7882 8963 c-4 -10 -7 -76 -7 -148 l0 -130 30 0 30 0 -2 139 c-2 99
-7 142 -15 148 -20 12 -28 10 -36 -9z m25 -195 c-2 -35 -3 -7 -3 62 0 69 1 97
3 63 2 -35 2 -91 0 -125z"/>
<path d="M6720 8959 c-26 -9 -56 -46 -46 -57 3 -3 16 -1 29 5 39 20 57 23 79
14 14 -5 17 -10 10 -15 -17 -10 -15 -26 2 -26 16 0 46 26 46 40 0 27 -81 53
-120 39z"/>
<path d="M6844 8886 c-9 -23 0 -69 14 -74 8 -2 12 9 12 37 0 41 -16 64 -26 37z"/>
<path d="M7175 9040 c-3 -5 -3 -10 2 -10 4 0 3 -4 -2 -8 -11 -8 -36 -94 -29
-101 10 -10 26 19 31 59 3 23 12 44 19 47 8 3 11 9 8 14 -7 12 -21 11 -29 -1z"/>
<path d="M7117 8853 c-2 -10 -8 -26 -12 -35 -5 -13 -2 -18 8 -18 12 0 37 46
37 66 0 13 -29 1 -33 -13z"/>
<path d="M7096 8699 c-8 -43 -8 -59 3 -59 13 0 24 71 13 82 -6 6 -12 -3 -16
-23z"/>
<path d="M7073 8563 c-14 -45 1 -71 17 -29 12 32 13 66 2 66 -4 0 -12 -17 -19
-37z"/>
<path d="M7056 8404 c-8 -29 -3 -39 13 -29 13 8 15 55 2 55 -5 0 -12 -12 -15
-26z"/>
<path d="M7057 8314 c-10 -11 -8 -64 2 -64 13 0 24 51 13 62 -4 4 -11 5 -15 2z"/>
<path d="M7050 8170 c0 -24 15 -27 24 -4 9 22 8 24 -9 24 -8 0 -15 -9 -15 -20z"/>
<path d="M7060 8080 c0 -11 5 -20 10 -20 6 0 10 9 10 20 0 11 -4 20 -10 20 -5
0 -10 -9 -10 -20z"/>
<path d="M7060 7985 c0 -14 5 -25 10 -25 6 0 10 11 10 25 0 14 -4 25 -10 25
-5 0 -10 -11 -10 -25z"/>
<path d="M5294 8695 c-6 -24 0 -44 10 -34 11 11 17 59 7 59 -6 0 -13 -11 -17
-25z"/>
<path d="M5280 8635 c0 -8 5 -15 10 -15 6 0 10 7 10 15 0 8 -4 15 -10 15 -5 0
-10 -7 -10 -15z"/>
<path d="M5266 8548 c-3 -17 -4 -34 -1 -37 9 -8 25 21 25 47 0 33 -17 27 -24
-10z"/>
<path d="M5256 8484 c-9 -24 -7 -54 4 -54 6 0 10 6 10 13 0 6 3 22 6 35 7 25
-11 31 -20 6z"/>
<path d="M5235 8359 c-7 -33 -3 -45 14 -34 13 8 15 65 2 65 -5 0 -12 -14 -16
-31z"/>
<path d="M5227 8263 c-11 -10 -8 -83 3 -83 6 0 10 13 10 29 0 16 3 36 6 45 6
16 -7 22 -19 9z"/>
<path d="M4540 7111 c0 -6 12 -13 28 -17 83 -19 113 -29 167 -57 32 -18 94
-66 137 -108 80 -78 105 -89 64 -28 -25 37 -96 99 -161 142 -68 45 -235 93
-235 68z"/>
<path d="M6217 8274 c-28 -15 -35 -42 -15 -62 17 -17 42 -15 61 6 38 41 4 82
-46 56z m43 -24 c0 -12 -35 -31 -44 -23 -8 9 14 33 30 33 8 0 14 -4 14 -10z"/>
<path d="M6488 8269 c-24 -13 -23 -36 1 -49 27 -14 37 -13 55 6 12 12 13 20 6
35 -12 21 -35 24 -62 8z m42 -23 c0 -11 -19 -15 -25 -6 -3 5 1 10 9 10 9 0 16
-2 16 -4z"/>
<path d="M5889 8226 c-15 -33 4 -58 39 -54 55 7 54 70 -1 76 -21 3 -30 -3 -38
-22z m56 -17 c0 -7 -8 -15 -17 -17 -18 -3 -25 18 -11 32 10 10 28 1 28 -15z"/>
<path d="M5620 8190 c0 -38 28 -55 58 -34 39 27 26 54 -29 60 -26 3 -29 1 -29
-26z m55 -10 c-3 -5 -13 -10 -21 -10 -8 0 -14 5 -14 10 0 6 9 10 21 10 11 0
17 -4 14 -10z"/>
<path d="M7910 8140 c0 -6 30 -10 70 -10 40 0 70 4 70 10 0 6 -30 10 -70 10
-40 0 -70 -4 -70 -10z"/>
<path d="M7825 8130 c3 -5 17 -10 31 -10 13 0 24 5 24 10 0 6 -14 10 -31 10
-17 0 -28 -4 -24 -10z"/>
<path d="M7752 8119 c2 -6 8 -10 13 -10 5 0 11 4 13 10 2 6 -4 11 -13 11 -9 0
-15 -5 -13 -11z"/>
<path d="M7700 8110 c0 -5 5 -10 10 -10 6 0 10 5 10 10 0 6 -4 10 -10 10 -5 0
-10 -4 -10 -10z"/>
<path d="M7590 8090 c0 -5 11 -10 25 -10 14 0 25 5 25 10 0 6 -11 10 -25 10
-14 0 -25 -4 -25 -10z"/>
<path d="M7770 8054 c-117 -17 -120 -18 -120 -46 0 -48 10 -51 126 -44 60 4
112 10 115 14 10 12 -2 92 -15 91 -6 -1 -54 -7 -106 -15z m98 -40 c3 -20 -3
-21 -89 -27 -91 -7 -126 1 -103 22 11 11 117 30 159 28 22 -2 31 -7 33 -23z"/>
<path d="M7930 8015 l0 -45 50 0 c49 0 50 1 50 29 0 52 -8 61 -56 61 l-44 0 0
-45z m74 9 c11 -28 7 -34 -24 -34 -25 0 -30 4 -30 25 0 20 5 25 24 25 13 0 27
-7 30 -16z"/>
<path d="M7564 8036 c-6 -17 2 -36 17 -36 12 0 12 37 -1 45 -6 3 -13 -1 -16
-9z"/>
<path d="M7570 7965 c-10 -27 -6 -45 9 -45 12 0 20 60 9 66 -4 3 -13 -7 -18
-21z"/>
<path d="M7735 7920 c-40 -16 -68 -58 -73 -109 -4 -45 -2 -52 31 -87 34 -38
38 -39 100 -39 56 0 69 4 92 25 96 88 43 221 -87 219 -24 0 -52 -4 -63 -9z
m118 -21 c62 -32 76 -107 29 -160 -80 -89 -236 -6 -192 102 24 57 107 87 163
58z"/>
<path d="M7763 7880 c-74 -30 -47 -160 33 -160 47 0 70 14 82 50 15 41 -2 86
-39 105 -32 17 -44 18 -76 5z m71 -31 c47 -37 27 -109 -30 -109 -45 0 -81 60
-56 96 7 11 42 33 53 34 4 0 18 -9 33 -21z"/>
<path d="M7574 7886 c-7 -29 -3 -56 10 -59 4 -1 10 17 12 41 4 45 -12 58 -22
18z"/>
<path d="M7981 7843 c-6 -21 -11 -55 -11 -75 l0 -38 51 0 52 0 -7 67 c-7 70
-15 83 -53 83 -17 0 -24 -9 -32 -37z m57 -34 c3 -41 0 -47 -20 -52 -12 -4 -23
-5 -25 -4 -1 2 0 27 4 56 5 40 9 51 22 49 11 -2 17 -16 19 -49z"/>
<path d="M7587 7793 c-11 -10 -8 -73 3 -73 6 0 10 8 10 18 0 9 3 27 6 40 6 21
-5 30 -19 15z"/>
<path d="M7587 7703 c-2 -5 -7 -20 -11 -35 -5 -21 -3 -28 8 -28 15 0 28 58 15
66 -4 2 -10 1 -12 -3z"/>
<path d="M7588 7614 c-5 -4 -8 -20 -8 -36 0 -15 3 -28 8 -28 4 0 8 -12 9 -26
0 -15 7 -30 15 -35 19 -12 21 6 4 43 -8 18 -16 46 -18 61 -2 16 -6 25 -10 21z"/>
<path d="M7821 7611 c-63 -4 -96 -10 -99 -19 -3 -9 12 -11 65 -6 37 3 141 7
231 7 100 1 162 6 162 12 0 11 -211 15 -359 6z"/>
<path d="M7740 7543 c0 -10 51 -13 222 -13 139 0 218 4 212 9 -5 6 -105 11
-222 13 -164 2 -212 0 -212 -9z"/>
<path d="M7670 7481 c0 -14 33 -31 59 -31 28 0 27 16 -1 23 -13 2 -31 8 -40
12 -11 4 -18 3 -18 -4z"/>
<path d="M8120 7480 c-53 -8 -21 -21 44 -18 36 2 56 7 56 15 0 13 -33 14 -100
3z"/>
<path d="M7816 7462 c-3 -6 1 -13 10 -16 25 -10 92 -7 99 4 4 6 -10 10 -34 10
-21 0 -46 3 -54 6 -8 3 -18 1 -21 -4z"/>
<path d="M7960 7457 c0 -9 12 -11 40 -9 22 2 40 8 40 13 0 5 -18 9 -40 9 -26
0 -40 -5 -40 -13z"/>
<path d="M6535 8084 c-41 -8 -727 -54 -892 -60 l-173 -7 -22 -46 c-23 -46 -23
-47 -22 -513 2 -408 4 -473 19 -517 27 -82 58 -97 251 -121 69 -9 178 -8 484
5 217 9 447 19 510 23 l115 7 0 480 c0 487 -5 576 -41 703 l-15 52 -97 -1
c-53 -1 -106 -3 -117 -5z m193 -23 c8 -4 22 -57 33 -117 17 -94 20 -171 25
-559 3 -247 2 -464 -1 -481 l-6 -32 -187 -7 c-103 -4 -320 -13 -482 -20 -386
-17 -566 -2 -615 51 -42 45 -45 91 -46 567 -1 388 1 457 14 489 10 24 24 39
39 42 13 3 100 7 193 11 94 3 256 12 360 20 105 8 262 19 350 26 88 6 162 13
164 15 8 8 146 4 159 -5z"/>
<path d="M6370 7929 c-189 -11 -192 -12 -188 -51 2 -25 9 -33 30 -39 14 -4
118 -4 230 0 l203 6 3 27 c2 15 -2 36 -8 48 -12 23 -20 23 -270 9z m252 -33
c4 -6 8 -14 8 -17 0 -11 -104 -19 -267 -19 -137 0 -163 2 -163 15 0 21 23 24
210 34 170 8 200 6 212 -13z"/>
<path d="M5559 7919 c-34 -13 -36 -38 -29 -302 5 -190 6 -200 27 -217 41 -33
213 -37 360 -9 52 10 52 10 58 54 4 24 5 121 4 217 -6 259 -14 267 -254 267
-77 0 -152 -5 -166 -10z m317 -20 c68 -18 77 -41 82 -231 5 -181 -1 -243 -26
-253 -9 -4 -89 -10 -177 -12 -132 -4 -163 -2 -180 10 -19 14 -20 29 -24 250
l-3 236 33 4 c74 9 253 6 295 -4z"/>
<path d="M5603 7834 c-10 -17 -12 -56 -6 -198 6 -164 8 -178 27 -188 27 -14
206 -3 252 17 l35 15 -3 160 c-4 208 0 203 -170 210 -114 5 -122 4 -135 -16z
m227 -10 c48 -10 60 -48 60 -197 0 -99 -3 -127 -15 -137 -18 -15 -177 -33
-221 -25 l-32 5 -4 168 c-3 92 -3 173 0 180 5 13 153 17 212 6z"/>
<path d="M6580 7806 c-3 -2 -94 -6 -203 -7 l-198 -4 3 -40 c3 -35 6 -41 33
-46 32 -7 323 -1 393 7 l43 5 -3 42 c-3 39 -5 42 -33 45 -17 2 -33 1 -35 -2z
m40 -45 c0 -15 -11 -19 -67 -24 -38 -4 -132 -7 -210 -7 -135 0 -143 1 -143 20
0 22 26 25 273 28 137 2 147 1 147 -17z"/>
<path d="M6365 7670 c-99 -3 -181 -7 -182 -8 -2 -1 -3 -18 -3 -37 0 -29 4 -36
27 -41 31 -8 433 8 449 18 5 4 8 23 6 42 l-4 36 -57 -2 c-31 -1 -137 -5 -236
-8z m275 -29 c0 -25 -25 -28 -257 -37 -155 -5 -174 -4 -179 10 -4 9 -3 20 0
24 4 4 94 9 199 13 106 3 202 6 215 7 16 2 22 -3 22 -17z"/>
<path d="M6364 7456 c-58 -18 -110 -61 -142 -115 -23 -40 -27 -57 -27 -126 0
-89 13 -121 67 -176 97 -97 260 -96 356 2 49 49 64 85 70 161 4 59 1 75 -22
122 -33 67 -84 111 -150 131 -59 18 -97 18 -152 1z m174 -34 c141 -65 174
-257 64 -365 -48 -46 -98 -67 -164 -67 -68 1 -125 27 -169 79 -161 187 45 458
269 353z"/>
<path d="M6362 7394 c-168 -86 -130 -340 54 -360 64 -7 127 24 169 84 26 37
30 53 30 105 -1 73 -20 114 -71 153 -46 35 -132 44 -182 18z m144 -23 c153
-69 93 -315 -77 -315 -56 0 -90 20 -127 75 -20 29 -23 44 -20 94 5 74 33 119
92 146 52 23 80 23 132 0z"/>
<path d="M5849 7313 c-2 -21 3 -110 7 -125 6 -20 44 -24 75 -8 15 9 19 22 19
63 0 29 -5 58 -12 65 -13 13 -87 17 -89 5z m65 -19 c11 -4 16 -19 16 -45 0
-33 -4 -41 -26 -49 -14 -6 -27 -10 -30 -10 -2 0 -4 25 -4 55 0 56 6 63 44 49z"/>
<path d="M5550 7256 c0 -62 14 -79 61 -74 31 3 33 5 35 43 2 67 -9 85 -56 85
l-40 0 0 -54z m68 -8 c-2 -36 -7 -44 -25 -46 -21 -3 -23 1 -23 36 0 39 8 49
38 51 9 1 12 -11 10 -41z"/>
<path d="M5690 7253 c0 -77 8 -87 60 -80 23 3 43 7 44 9 1 1 0 30 -3 63 l-6
60 -47 3 -48 3 0 -58z m78 -10 c2 -24 0 -43 -5 -43 -4 0 -18 -3 -30 -6 -22 -6
-23 -3 -23 45 0 51 1 52 28 49 24 -3 27 -7 30 -45z"/>
<path d="M6020 7256 c0 -78 5 -86 54 -86 52 0 66 13 66 63 0 63 -13 77 -70 77
l-50 0 0 -54z m90 15 c5 -11 10 -33 10 -50 0 -29 -2 -31 -40 -31 l-40 0 0 50
c0 49 1 50 30 50 19 0 33 -7 40 -19z"/>
<path d="M5540 7123 c0 -9 589 -35 599 -26 3 2 0 8 -5 13 -13 13 -594 26 -594
13z"/>
<path d="M5540 7061 c0 -5 19 -12 43 -15 79 -9 509 -27 515 -22 12 13 -11 16
-159 25 -311 19 -399 22 -399 12z"/>
<path d="M5546 6981 c10 -9 584 -35 592 -26 13 13 -19 17 -195 25 -245 12
-409 12 -397 1z"/>
<path d="M5560 6922 c0 -6 12 -13 28 -16 31 -7 525 -27 530 -21 17 16 -39 23
-250 29 -134 4 -258 9 -275 13 -20 3 -33 1 -33 -5z"/>
<path d="M4700 8083 c0 -10 52 -34 58 -28 3 2 -1 11 -8 20 -13 15 -50 21 -50
8z"/>
<path d="M4741 7910 c1 -66 5 -120 10 -120 5 0 9 8 9 18 0 9 2 63 3 120 1 77
-1 102 -11 102 -9 0 -12 -29 -11 -120z"/>
<path d="M4747 7753 c-11 -10 -8 -63 3 -63 6 0 10 16 10 35 0 36 -2 40 -13 28z"/>
<path d="M4730 7635 c-12 -33 -13 -45 -1 -45 5 0 14 13 19 30 14 37 -4 52 -18
15z"/>
<path d="M4700 7561 c-6 -12 -6 -22 -1 -26 6 -3 15 3 21 14 6 12 6 22 1 26 -6
3 -15 -3 -21 -14z"/>
<path d="M4623 7533 c-49 -6 -40 -23 12 -23 33 0 45 4 45 15 0 8 -6 14 -12 13
-7 0 -28 -3 -45 -5z"/>
<path d="M5044 6595 c-3 -8 -3 -19 1 -25 9 -14 35 6 35 26 0 19 -29 18 -36 -1z"/>
<path d="M4981 6505 c-19 -26 -20 -45 -2 -45 5 0 16 12 26 26 24 37 4 54 -24
19z"/>
<path d="M6980 6525 c0 -9 5 -15 11 -13 6 2 11 8 11 13 0 5 -5 11 -11 13 -6 2
-11 -4 -11 -13z"/>
<path d="M6740 6521 c0 -15 37 -23 70 -16 47 10 35 25 -20 25 -27 0 -50 -4
-50 -9z"/>
<path d="M6860 6520 c0 -5 16 -10 35 -10 19 0 35 5 35 10 0 6 -16 10 -35 10
-19 0 -35 -4 -35 -10z"/>
<path d="M6600 6510 c0 -5 23 -10 50 -10 28 0 50 5 50 10 0 6 -22 10 -50 10
-27 0 -50 -4 -50 -10z"/>
<path d="M6323 6503 c-24 -2 -43 -9 -43 -14 0 -15 93 -6 98 9 2 6 0 11 -5 10
-4 -1 -27 -3 -50 -5z"/>
<path d="M6445 6500 c-4 -6 12 -10 39 -10 25 0 46 5 46 10 0 6 -18 10 -39 10
-22 0 -43 -4 -46 -10z"/>
<path d="M6118 6493 c-21 -2 -38 -9 -38 -14 0 -15 103 -7 108 9 2 7 -4 11 -15
10 -10 -1 -35 -3 -55 -5z"/>
<path d="M5265 6485 c-5 -2 -22 -6 -37 -9 -16 -4 -28 -11 -28 -17 0 -12 69 -3
83 11 10 9 -3 19 -18 15z"/>
<path d="M5623 6478 c2 -8 21 -13 47 -13 26 0 45 5 48 13 2 8 -11 12 -48 12
-37 0 -50 -4 -47 -12z"/>
<path d="M5763 6476 c4 -13 76 -15 80 -2 1 4 -17 9 -41 10 -26 2 -41 -2 -39
-8z"/>
<path d="M5903 6477 c5 -17 97 -22 97 -5 0 9 -16 13 -51 15 -34 1 -49 -3 -46
-10z"/>
<path d="M5388 6473 c-53 -6 -47 -23 7 -23 33 0 45 4 45 15 0 8 -3 14 -7 13
-5 -1 -25 -3 -45 -5z"/>
<path d="M5490 6470 c0 -5 18 -10 39 -10 22 0 43 5 46 10 4 6 -12 10 -39 10
-25 0 -46 -4 -46 -10z"/>
<path d="M5343 6059 c4 -13 7 -30 7 -36 0 -7 5 -13 11 -13 15 0 6 63 -10 68
-10 4 -12 -1 -8 -19z"/>
<path d="M5430 5673 c0 -23 17 -49 26 -41 9 10 -4 58 -16 58 -6 0 -10 -8 -10
-17z"/>
<path d="M5490 5495 c0 -14 32 -65 40 -65 13 0 13 6 -5 40 -13 26 -35 41 -35
25z"/>
<path d="M5580 5308 c0 -23 11 -48 21 -48 14 0 11 24 -6 46 -12 16 -14 17 -15
2z"/>
<path d="M5637 5213 c-7 -11 19 -53 34 -53 14 0 11 12 -10 39 -10 13 -21 19
-24 14z"/>
<path d="M4634 6086 c-18 -14 -18 -15 -1 -21 19 -8 50 12 41 26 -7 13 -17 11
-40 -5z"/>
<path d="M3726 5704 c-4 -10 -2 -22 3 -27 14 -14 43 0 39 20 -4 24 -34 28 -42
7z"/>
<path d="M3792 5678 c-18 -18 -14 -35 10 -42 29 -7 42 6 33 33 -7 23 -25 27
-43 9z"/>
<path d="M3854 5635 c-8 -20 4 -35 27 -35 14 0 19 7 19 25 0 18 -5 25 -20 25
-11 0 -23 -7 -26 -15z"/>
<path d="M6465 5019 c-9 -26 20 -59 52 -59 30 0 31 29 0 58 -29 27 -44 28 -52
1z m51 -36 c-7 -7 -26 7 -26 19 0 6 6 6 15 -2 9 -7 13 -15 11 -17z"/>
<path d="M6402 4941 c7 -19 209 -193 216 -186 9 9 -188 194 -206 195 -8 0 -12
-4 -10 -9z"/>
<path d="M6573 4934 c-9 -23 8 -46 41 -57 54 -18 52 38 -1 62 -31 14 -32 14
-40 -5z m42 -24 c3 -6 -1 -7 -9 -4 -18 7 -21 14 -7 14 6 0 13 -4 16 -10z"/>
<path d="M6386 4912 c-7 -11 203 -196 212 -187 7 7 -186 194 -200 195 -4 0 -9
-4 -12 -8z"/>
<path d="M5123 5048 c2 -7 14 -13 27 -13 13 0 25 6 28 13 2 8 -7 12 -28 12
-21 0 -30 -4 -27 -12z"/>
<path d="M5342 5049 c5 -16 68 -25 68 -10 0 6 -6 11 -12 11 -7 0 -24 3 -37 7
-18 4 -23 2 -19 -8z"/>
<path d="M4804 5039 c-3 -5 1 -12 10 -15 20 -8 61 -1 61 10 0 12 -64 16 -71 5z"/>
<path d="M4900 5042 c0 -5 7 -13 16 -16 24 -9 54 -7 54 4 0 6 -6 10 -12 10 -7
0 -23 3 -35 6 -13 4 -23 2 -23 -4z"/>
<path d="M5010 5040 c0 -5 16 -10 36 -10 21 0 33 4 29 10 -3 6 -19 10 -36 10
-16 0 -29 -4 -29 -10z"/>
<path d="M5440 5041 c0 -10 58 -23 71 -15 21 13 6 24 -31 24 -22 0 -40 -4 -40
-9z"/>
<path d="M4680 5020 c0 -5 14 -10 30 -10 17 0 30 5 30 10 0 6 -13 10 -30 10
-16 0 -30 -4 -30 -10z"/>
<path d="M5330 4361 c0 -6 5 -13 10 -16 6 -3 10 1 10 9 0 9 -4 16 -10 16 -5 0
-10 -4 -10 -9z"/>
<path d="M4670 4578 c0 -19 18 -43 25 -36 9 9 -4 48 -16 48 -5 0 -9 -6 -9 -12z"/>
<path d="M4703 4469 c4 -13 7 -27 7 -31 0 -5 5 -8 11 -8 15 0 6 53 -10 58 -10
4 -12 -1 -8 -19z"/>
<path d="M4740 4383 c0 -5 7 -18 15 -29 15 -18 15 -18 13 5 -3 23 -28 44 -28
24z"/>
<path d="M4855 4131 c-3 -5 3 -24 14 -41 21 -35 36 -26 22 13 -11 29 -27 41
-36 28z"/>
<path d="M5160 3592 c0 -18 22 -62 32 -62 16 0 8 37 -12 55 -11 10 -20 13 -20
7z"/>
<path d="M5202 3489 c3 -8 20 -47 38 -86 31 -69 43 -83 53 -65 7 12 -67 155
-82 160 -9 3 -12 0 -9 -9z"/>
<path d="M5294 3248 c3 -13 6 -26 6 -30 0 -12 30 -9 30 3 0 18 -20 49 -32 49
-6 0 -8 -9 -4 -22z"/>
<path d="M6750 3288 c0 -11 10 -20 25 -24 l25 -6 -35 -39 c-52 -58 -46 -81 8
-33 64 57 72 72 52 94 -9 10 -29 20 -46 22 -23 4 -29 1 -29 -14z"/>
<path d="M6847 3234 c-4 -4 -7 -21 -7 -39 0 -37 -31 -74 -63 -76 -47 -3 -52
-4 -52 -19 0 -11 11 -15 43 -14 56 1 88 31 97 91 6 43 -3 72 -18 57z"/>
<path d="M6686 3000 c-20 -50 -20 -56 -2 -41 15 13 32 69 23 77 -2 3 -12 -13
-21 -36z"/>
<path d="M5617 2923 c-3 -5 -75 -145 -160 -313 -328 -647 -445 -856 -535 -953
-55 -58 -47 -76 9 -21 73 69 157 212 399 674 73 140 173 331 222 424 48 93 88
175 88 182 0 15 -16 19 -23 7z"/>
<path d="M4837 2143 c-15 -14 -4 -18 61 -20 37 -1 95 -10 130 -21 34 -11 64
-16 67 -11 17 27 -233 78 -258 52z"/>
<path d="M6540 2287 c0 -36 -36 -167 -97 -350 -80 -242 -248 -578 -336 -674
-34 -37 -37 -44 -22 -49 54 -21 271 375 379 693 63 185 92 288 102 356 5 39 4
47 -10 47 -10 0 -16 -9 -16 -23z"/>
<path d="M5888 1724 c-40 -12 -13 -22 65 -26 66 -3 99 -11 171 -41 86 -35 122
-40 82 -12 -61 45 -264 95 -318 79z"/>
<path d="M4196 10801 c-4 -7 -5 -15 -2 -18 9 -9 19 4 14 18 -4 11 -6 11 -12 0z"/>
<path d="M3170 10490 c0 -5 5 -10 10 -10 6 0 10 5 10 10 0 6 -4 10 -10 10 -5
0 -10 -4 -10 -10z"/>
<path d="M9115 10448 c-26 -98 -27 -100 -84 -125 l-55 -25 54 -21 c51 -21 54
-25 73 -79 10 -32 23 -58 27 -58 5 0 12 15 15 34 10 53 40 93 79 106 20 6 36
15 36 18 0 4 -18 15 -40 24 -32 13 -44 26 -60 63 -11 26 -20 55 -20 66 0 26
-17 24 -25 -3z"/>
<path d="M2222 10290 c0 -14 2 -19 5 -12 2 6 2 18 0 25 -3 6 -5 1 -5 -13z"/>
<path d="M9280 10300 c0 -5 9 -10 20 -10 11 0 20 5 20 10 0 6 -9 10 -20 10
-11 0 -20 -4 -20 -10z"/>
<path d="M8040 10290 c0 -5 5 -10 10 -10 6 0 10 5 10 10 0 6 -4 10 -10 10 -5
0 -10 -4 -10 -10z"/>
<path d="M2200 10183 c-23 -111 -56 -152 -142 -177 -23 -7 -43 -17 -45 -23 -2
-5 21 -17 51 -26 76 -24 92 -41 125 -132 16 -43 33 -81 39 -83 5 -1 15 19 21
45 27 106 45 131 117 165 l66 31 -69 32 c-77 36 -88 51 -113 168 -8 33 -19 57
-26 57 -7 0 -18 -24 -24 -57z"/>
<path d="M2457 9994 c-15 -15 -6 -24 22 -24 17 0 33 5 36 10 3 6 0 10 -9 10
-8 0 -21 2 -28 5 -8 3 -17 2 -21 -1z"/>
<path d="M1940 9980 c0 -5 9 -10 20 -10 11 0 20 5 20 10 0 6 -9 10 -20 10 -11
0 -20 -4 -20 -10z"/>
<path d="M3537 9882 c-22 -24 -21 -55 1 -75 25 -23 58 -21 82 3 22 22 25 42
10 71 -14 25 -71 26 -93 1z"/>
<path d="M10330 9720 c0 -5 5 -10 10 -10 6 0 10 5 10 10 0 6 -4 10 -10 10 -5
0 -10 -4 -10 -10z"/>
<path d="M2222 9675 c0 -16 2 -22 5 -12 2 9 2 23 0 30 -3 6 -5 -1 -5 -18z"/>
<path d="M8720 9450 c0 -5 7 -10 15 -10 8 0 15 5 15 10 0 6 -7 10 -15 10 -8 0
-15 -4 -15 -10z"/>
<path d="M4109 8962 c-26 -22 -31 -75 -8 -97 26 -26 63 -28 92 -5 36 29 36 71
1 99 -33 26 -55 26 -85 3z"/>
<path d="M9235 8691 c-6 -11 9 -23 19 -14 9 9 7 23 -3 23 -6 0 -12 -4 -16 -9z"/>
<path d="M10081 8644 c0 -11 3 -14 6 -6 3 7 2 16 -1 19 -3 4 -6 -2 -5 -13z"/>
<path d="M10077 8603 c-4 -3 -7 -16 -7 -27 0 -28 -22 -90 -39 -109 -7 -9 -34
-24 -59 -33 -67 -25 -70 -31 -22 -44 58 -16 94 -54 110 -118 8 -29 18 -51 24
-49 5 2 17 31 26 65 19 68 35 86 93 102 20 6 37 14 37 18 0 5 -16 14 -37 21
-53 20 -81 55 -95 122 -12 57 -17 66 -31 52z"/>
<path d="M1330 8495 c0 -8 5 -15 10 -15 6 0 10 7 10 15 0 8 -4 15 -10 15 -5 0
-10 -7 -10 -15z"/>
<path d="M9865 8410 c-3 -5 1 -10 10 -10 9 0 13 5 10 10 -3 6 -8 10 -10 10 -2
0 -7 -4 -10 -10z"/>
<path d="M10260 8411 c0 -16 19 -23 40 -16 30 10 24 25 -10 25 -16 0 -30 -4
-30 -9z"/>
<path d="M3612 8381 c4 -13 18 -16 19 -4 0 4 -5 9 -11 12 -7 2 -11 -2 -8 -8z"/>
<path d="M2410 8312 c-18 -14 -21 -25 -16 -45 7 -31 48 -46 71 -27 22 18 19
67 -4 80 -25 13 -25 13 -51 -8z"/>
<path d="M9260 8039 c-14 -26 11 -69 40 -69 39 0 65 51 38 78 -20 20 -66 15
-78 -9z"/>
<path d="M4090 7985 c0 -7 -6 -18 -14 -22 -12 -7 -11 -12 5 -32 l19 -23 19 23
c16 20 17 25 5 32 -8 4 -14 15 -14 22 0 8 -4 15 -10 15 -5 0 -10 -7 -10 -15z"/>
<path d="M10266 7642 c-3 -6 -1 -14 5 -17 15 -10 25 3 12 16 -7 7 -13 7 -17 1z"/>
<path d="M8610 7550 c0 -5 5 -10 10 -10 6 0 10 5 10 10 0 6 -4 10 -10 10 -5 0
-10 -4 -10 -10z"/>
<path d="M1495 7492 c-5 -25 -15 -37 -38 -47 l-32 -14 31 -11 c24 -8 34 -19
39 -43 l7 -32 14 32 c7 17 22 36 31 42 17 9 17 11 -2 24 -10 8 -24 30 -31 48
l-11 34 -8 -33z"/>
<path d="M9180 7400 c0 -5 5 -10 10 -10 6 0 10 5 10 10 0 6 -4 10 -10 10 -5 0
-10 -4 -10 -10z"/>
<path d="M9170 7329 c-18 -67 -31 -88 -69 -110 l-36 -22 28 -12 c15 -6 47 -31
71 -54 l45 -44 14 34 c10 25 26 40 56 53 22 11 41 22 41 25 0 4 -19 15 -42 26
-43 20 -56 42 -72 118 -9 39 -23 33 -36 -14z"/>
<path d="M2217 7324 c-8 -8 1 -24 14 -24 5 0 9 7 9 15 0 15 -12 20 -23 9z"/>
<path d="M9340 7200 c0 -5 9 -10 20 -10 11 0 20 5 20 10 0 6 -9 10 -20 10 -11
0 -20 -4 -20 -10z"/>
<path d="M3415 7130 c-70 -9 -190 -39 -291 -73 l-70 -25 -38 29 c-118 87 -283
74 -384 -32 -44 -45 -82 -129 -82 -179 0 -28 -7 -33 -92 -76 -152 -75 -288
-174 -322 -232 -4 -7 -2 -19 4 -27 28 -33 157 -12 403 67 80 26 102 29 115 20
56 -41 108 -57 187 -57 92 1 140 20 204 84 39 39 81 130 81 176 0 20 19 33
136 94 166 86 261 152 270 187 11 44 -22 56 -121 44z m75 -39 c0 -16 -81 -80
-165 -131 -73 -43 -179 -100 -188 -100 -2 0 -9 18 -16 40 -6 22 -13 40 -15 40
-15 0 -369 -140 -445 -176 l-93 -44 22 -36 c26 -45 29 -43 -113 -89 -134 -44
-221 -65 -269 -65 -38 0 -44 5 -30 26 9 16 327 191 371 205 19 7 98 41 176 77
330 152 765 296 765 253z"/>
<path d="M660 6370 c-25 -25 -25 -42 -2 -63 24 -22 45 -21 65 1 23 25 21 48
-5 66 -29 20 -34 20 -58 -4z"/>
<path d="M8846 6265 c4 -8 10 -15 15 -15 5 0 9 7 9 15 0 8 -7 15 -15 15 -9 0
-12 -6 -9 -15z"/>
<path d="M9670 6260 c-11 -11 -20 -28 -20 -38 0 -41 69 -69 98 -40 18 18 14
63 -6 81 -25 22 -48 21 -72 -3z"/>
<path d="M11950 6189 c-12 -47 -16 -53 -58 -71 l-46 -21 44 -21 c37 -18 46
-28 61 -71 l17 -50 12 30 c20 46 24 142 10 201 -7 30 -17 54 -21 54 -4 0 -13
-23 -19 -51z"/>
<path d="M2220 6100 c0 -24 15 -27 24 -4 9 22 8 24 -9 24 -8 0 -15 -9 -15 -20z"/>
<path d="M3190 5960 c0 -5 7 -10 15 -10 8 0 15 5 15 10 0 6 -7 10 -15 10 -8 0
-15 -4 -15 -10z"/>
<path d="M2843 5394 c-3 -8 -1 -20 6 -27 8 -8 11 -4 11 16 0 30 -7 35 -17 11z"/>
<path d="M2829 5298 c-24 -89 -42 -143 -51 -155 -5 -6 -39 -24 -76 -39 -37
-15 -71 -31 -76 -35 -5 -4 11 -13 35 -19 24 -6 62 -22 85 -35 37 -22 43 -31
69 -109 16 -48 34 -86 40 -86 6 0 21 33 32 73 28 92 49 119 118 148 30 12 55
25 55 28 0 4 -27 18 -59 32 -70 31 -87 55 -117 157 -12 42 -26 78 -32 80 -6 2
-16 -16 -23 -40z"/>
<path d="M1847 5293 c-2 -5 -7 -20 -11 -35 -4 -17 -16 -30 -33 -36 l-28 -9 33
-17 c19 -10 32 -24 32 -36 0 -32 20 -33 31 -1 6 17 19 33 30 36 25 8 24 22 -1
30 -13 4 -23 18 -27 36 -6 30 -18 45 -26 32z"/>
<path d="M10580 5231 c0 -5 7 -11 15 -15 9 -3 15 0 15 9 0 8 -7 15 -15 15 -8
0 -15 -4 -15 -9z"/>
<path d="M2560 5070 c0 -5 7 -10 15 -10 8 0 15 5 15 10 0 6 -7 10 -15 10 -8 0
-15 -4 -15 -10z"/>
<path d="M3080 5071 c0 -17 19 -23 50 -16 43 9 37 25 -10 25 -22 0 -40 -4 -40
-9z"/>
<path d="M9027 4856 c-22 -8 -50 -24 -63 -37 -24 -22 -24 -22 -99 -6 -103 23
-145 22 -145 -1 0 -25 21 -43 100 -85 90 -48 362 -152 436 -166 72 -13 171
-15 178 -2 11 16 -28 50 -105 91 -72 38 -77 43 -83 79 -15 96 -127 160 -219
127z m-147 -69 c36 -10 44 -16 42 -32 -2 -11 -7 -24 -12 -28 -7 -8 -150 57
-150 68 0 9 74 4 120 -8z m435 -161 c58 -28 96 -55 77 -56 -20 0 -146 32 -155
40 -10 9 2 40 17 40 6 0 34 -11 61 -24z"/>
<path d="M8330 4846 c0 -15 18 -31 26 -23 7 7 -7 37 -17 37 -5 0 -9 -6 -9 -14z"/>
<path d="M2845 4768 c-4 -10 -4 -26 0 -35 8 -17 8 -17 12 0 3 9 3 25 0 35 -4
16 -4 16 -12 0z"/>
<path d="M8936 4611 c10 -18 32 -42 48 -54 33 -23 117 -34 155 -20 20 8 10 15
-85 52 -60 24 -115 46 -123 49 -10 4 -9 -4 5 -27z"/>
<path d="M10486 4115 c-13 -65 -28 -87 -80 -111 -41 -19 -47 -24 -30 -30 76
-27 82 -32 102 -86 11 -29 23 -52 28 -51 4 1 16 25 27 54 16 43 26 54 58 68
21 9 39 19 39 23 0 4 -15 14 -32 21 -43 18 -53 32 -70 91 -18 61 -33 69 -42
21z"/>
<path d="M9715 4051 c-3 -5 -1 -12 5 -16 5 -3 10 1 10 9 0 18 -6 21 -15 7z"/>
<path d="M10325 3980 c3 -5 8 -10 11 -10 2 0 4 5 4 10 0 6 -5 10 -11 10 -5 0
-7 -4 -4 -10z"/>
<path d="M10650 3980 c0 -5 9 -10 20 -10 11 0 20 5 20 10 0 6 -9 10 -20 10
-11 0 -20 -4 -20 -10z"/>
<path d="M8330 3935 c0 -8 5 -15 10 -15 6 0 10 7 10 15 0 8 -4 15 -10 15 -5 0
-10 -7 -10 -15z"/>
<path d="M7364 3915 c-15 -23 -15 -27 0 -50 29 -44 86 -28 86 25 0 53 -57 69
-86 25z"/>
<path d="M2214 3791 c-107 -49 -140 -198 -62 -287 42 -48 83 -67 144 -67 63 0
119 29 154 80 21 31 25 48 25 108 0 63 -3 76 -29 109 -34 45 -95 76 -151 76
-22 0 -59 -9 -81 -19z"/>
<path d="M3120 3690 c0 -5 7 -10 15 -10 8 0 15 5 15 10 0 6 -7 10 -15 10 -8 0
-15 -4 -15 -10z"/>
<path d="M8246 3198 c-23 -79 -32 -94 -74 -113 -23 -11 -42 -22 -42 -25 0 -3
19 -12 42 -20 38 -13 45 -21 62 -67 10 -29 22 -53 26 -53 4 0 11 16 15 37 7
39 53 93 79 93 27 0 18 14 -21 35 -32 17 -40 29 -53 73 -14 50 -27 65 -34 40z"/>
<path d="M8390 3060 c0 -5 7 -10 15 -10 8 0 15 5 15 10 0 6 -7 10 -15 10 -8 0
-15 -4 -15 -10z"/>
<path d="M9230 2894 c0 -17 22 -14 28 4 2 7 -3 12 -12 12 -9 0 -16 -7 -16 -16z"/>
<path d="M3567 2827 c-3 -8 -1 -20 4 -28 6 -10 9 -7 9 14 0 29 -5 35 -13 14z"/>
<path d="M3561 2748 c-5 -13 -19 -56 -31 -97 -26 -91 -54 -120 -138 -146 -34
-11 -61 -24 -59 -30 2 -5 20 -13 40 -17 44 -9 112 -43 123 -60 5 -7 22 -51 39
-97 16 -45 34 -84 39 -85 5 0 20 33 32 74 13 41 28 84 35 96 10 19 81 61 132
78 27 9 20 21 -20 35 -21 7 -55 24 -75 37 -32 20 -40 34 -63 104 -14 45 -25
90 -25 100 0 29 -19 34 -29 8z"/>
<path d="M7150 2740 c0 -5 7 -10 16 -10 8 0 12 5 9 10 -3 6 -10 10 -16 10 -5
0 -9 -4 -9 -10z"/>
<path d="M3260 2480 c0 -5 9 -10 21 -10 11 0 17 5 14 10 -3 6 -13 10 -21 10
-8 0 -14 -4 -14 -10z"/>
<path d="M3815 2480 c-3 -6 0 -13 9 -16 22 -8 59 -1 64 14 5 15 -64 17 -73 2z"/>
<path d="M2220 2420 c0 -5 7 -10 15 -10 8 0 15 5 15 10 0 6 -7 10 -15 10 -8 0
-15 -4 -15 -10z"/>
<path d="M3560 2149 c0 -11 5 -17 10 -14 6 3 10 13 10 21 0 8 -4 14 -10 14 -5
0 -10 -9 -10 -21z"/>
<path d="M9160 2112 c-21 -99 -46 -133 -118 -161 -61 -24 -79 -41 -44 -41 9 0
40 -11 68 -24 46 -22 52 -28 71 -82 12 -33 24 -69 28 -81 10 -34 23 -28 35 17
30 113 48 133 145 170 l30 11 -65 32 c-72 35 -93 64 -109 151 -13 73 -26 76
-41 8z"/>
<path d="M9390 1920 c0 -5 11 -10 24 -10 14 0 28 5 31 10 4 6 -7 10 -24 10
-17 0 -31 -4 -31 -10z"/>
<path d="M8330 1910 c0 -5 5 -10 10 -10 6 0 10 5 10 10 0 6 -4 10 -10 10 -5 0
-10 -4 -10 -10z"/>
<path d="M9170 1633 c0 -22 2 -25 10 -13 13 20 13 40 0 40 -5 0 -10 -12 -10
-27z"/>
<path d="M3067 1394 c-7 -8 4 -44 14 -44 12 0 12 37 0 44 -4 3 -11 3 -14 0z"/>
<path d="M5270 896 c0 -14 5 -26 10 -26 6 0 10 9 10 19 0 11 -4 23 -10 26 -6
4 -10 -5 -10 -19z"/>
<path d="M5797 643 c-4 -3 -7 -17 -7 -30 0 -26 -3 -27 -103 -24 -60 1 -70 -1
-92 -23 -14 -14 -25 -35 -26 -48 -1 -18 -3 -16 -10 9 -13 46 -46 64 -105 60
l-49 -3 -3 -93 c-3 -84 -1 -92 15 -89 14 2 19 14 21 53 4 79 10 95 35 95 37 0
47 -19 47 -88 0 -55 2 -63 18 -60 12 2 18 15 20 48 l4 45 11 -35 c15 -45 76
-78 113 -61 15 7 24 7 24 1 0 -6 -11 -15 -25 -22 -19 -9 -29 -8 -49 6 -47 31
-78 9 -38 -27 44 -40 121 -28 147 24 9 17 15 56 15 99 0 56 3 70 15 70 12 0
15 -14 15 -65 0 -73 11 -85 74 -85 l36 0 0 69 c0 61 3 70 20 76 11 4 20 15 20
26 0 17 -5 19 -42 16 -52 -5 -68 0 -68 23 0 20 -23 43 -33 33z m-91 -118 c19
-29 11 -60 -22 -81 -22 -15 -26 -15 -49 0 -27 18 -33 53 -15 87 16 28 65 25
86 -6z m154 -35 c0 -49 -3 -58 -15 -54 -11 5 -15 21 -15 60 0 41 4 54 15 54
12 0 15 -13 15 -60z"/>
<path d="M5200 576 c-16 -16 -12 -211 3 -225 18 -14 37 5 37 36 0 21 3 22 21
13 51 -28 129 30 129 97 0 25 -8 43 -29 64 -27 27 -35 29 -91 27 -33 -2 -65
-7 -70 -12z m134 -48 c22 -32 20 -51 -10 -79 -23 -22 -27 -23 -52 -8 -30 16
-40 56 -22 89 15 28 64 27 84 -2z"/>
<path d="M5959 561 c-77 -77 13 -207 109 -157 17 9 36 25 42 36 10 19 12 18
38 -10 38 -42 78 -48 122 -18 38 26 52 58 25 58 -9 0 -28 -9 -43 -20 -31 -22
-62 -18 -80 11 -12 18 -9 19 63 19 86 0 96 9 71 59 -20 37 -44 51 -88 51 -39
0 -76 -23 -88 -54 -8 -21 -8 -21 -15 -1 -23 60 -107 74 -156 26z m105 -26 c4
-12 -4 -15 -41 -15 -39 0 -44 2 -33 15 7 8 25 15 40 15 16 0 30 -7 34 -15z
m196 0 c11 -13 5 -15 -40 -15 -45 0 -51 2 -40 15 7 8 25 15 40 15 15 0 33 -7
40 -15z m-155 -63 c-11 -4 -32 -15 -47 -25 -31 -21 -63 -16 -78 14 -10 18 -7
19 67 18 43 -1 69 -4 58 -7z"/>
<path d="M6396 559 c-72 -86 29 -220 114 -151 22 18 24 18 58 0 43 -21 78 -15
110 19 l22 24 0 -25 c0 -19 5 -26 20 -26 18 0 20 7 20 64 0 67 15 94 45 82 11
-4 15 -22 15 -76 0 -63 2 -70 20 -70 18 0 20 7 20 59 0 75 6 91 36 91 22 0 23
-4 26 -72 2 -60 6 -73 21 -76 15 -3 17 6 17 76 0 64 -4 82 -18 95 -20 19 -59
22 -82 7 -9 -5 -19 -5 -26 1 -6 5 -33 8 -60 6 -41 -2 -50 -6 -52 -24 -3 -21
-3 -21 -27 3 -31 31 -94 33 -119 5 -17 -19 -18 -19 -37 0 -12 12 -33 19 -58
19 -32 0 -44 -6 -65 -31z m108 -34 c9 -13 16 -29 16 -35 0 -18 -43 -60 -61
-60 -20 0 -49 36 -49 60 0 27 30 60 54 60 14 0 30 -10 40 -25z m146 6 c26 -49
-6 -110 -50 -96 -55 17 -46 115 11 115 18 0 32 -7 39 -19z"/>
<path d="M6324 419 c-8 -14 11 -33 25 -25 6 4 11 14 11 22 0 16 -26 19 -36 3z"/>
</g>
</svg>
